<svg xmlns="http://www.w3.org/2000/svg" viewBox="0 0 500 150">
  <!-- Symbol/Icon on the left -->
  <g transform="translate(20, 10) scale(0.8)">
    <!-- Circular swooshes/People figures -->
    <path d="M50 100 Q 20 50 80 20 Q 140 50 110 100 Z" fill="#2ecc71" opacity="0.9" /> <!-- Green figure -->
    <path d="M90 100 Q 150 50 120 120 Q 60 130 90 100 Z" fill="#2980b9" opacity="0.9" /> <!-- Blue figure/swoosh -->
    
    <!-- Buildings -->
    <rect x="60" y="40" width="30" height="60" fill="#2c3e50" />
    <rect x="95" y="30" width="25" height="70" fill="#34495e" />
    <rect x="65" y="45" width="8" height="8" fill="#ecf0f1" />
    <rect x="80" y="45" width="8" height="8" fill="#ecf0f1" />
    <rect x="65" y="60" width="8" height="8" fill="#ecf0f1" />
    <rect x="100" y="35" width="6" height="6" fill="#ecf0f1" />
    <rect x="110" y="35" width="6" height="6" fill="#ecf0f1" />
    
    <!-- Pixels fading -->
    <rect x="130" y="20" width="10" height="10" fill="#3498db" opacity="0.8" />
    <rect x="145" y="15" width="8" height="8" fill="#2ecc71" opacity="0.6" />
    <rect x="155" y="25" width="6" height="6" fill="#3498db" opacity="0.4" />
  </g>
  
  <!-- Text on the right -->
  <text x="160" y="95" font-family="'Segoe UI', sans-serif" font-size="60" font-weight="bold" fill="#000033">Admiamigo</text>
  <text x="470" y="95" font-family="'Segoe UI', sans-serif" font-size="60" font-weight="bold" fill="#2ecc71">360</text>
</svg>
